<?xml version="1.0" encoding="utf-8"?>
<!-- Generator: Adobe Illustrator 16.0.0, SVG Export Plug-In . SVG Version: 6.00 Build 0)  -->
<!DOCTYPE svg PUBLIC "-//W3C//DTD SVG 1.1//EN" "http://www.w3.org/Graphics/SVG/1.1/DTD/svg11.dtd">
<svg version="1.1" id="Layer_1" xmlns="http://www.w3.org/2000/svg" xmlns:xlink="http://www.w3.org/1999/xlink" x="0px" y="0px"
	 width="820px" height="231px" viewBox="0 0 820 231" enable-background="new 0 0 820 231" xml:space="preserve">
<g>
	<g>
		<path fill="#079BB5" d="M74.721,62.16v88.474H60.067v-37.753H20.422v37.753H5.632V62.16h14.791v38.902h39.645V62.16H74.721z"/>
		<path fill="#079BB5" d="M144.557,144.284c-5.987,5.178-13.824,7.766-23.501,7.766c-9.682,0-17.301-3.015-22.864-9.05
			c-5.559-6.032-8.338-13.889-8.338-23.569v-2.43c0-9.634,2.733-17.597,8.203-23.874c5.472-6.284,12.484-9.414,21.04-9.389
			c8.554,0.022,15.206,2.679,19.958,7.967c4.748,5.294,7.125,12.529,7.125,21.716v8.711h-40.999l-0.134,0.339
			c0.27,5.357,1.835,9.656,4.694,12.898c2.859,3.244,6.72,4.861,11.583,4.861c3.872,0,7.214-0.444,10.031-1.348
			c2.812-0.9,5.616-2.319,8.408-4.254l4.725,9.655H144.557z M131.661,109.772c0-4.276-1.093-7.699-3.277-10.265
			c-2.186-2.568-5.226-3.853-9.119-3.853c-3.896,0-7.036,1.41-9.421,4.227c-2.388,2.811-3.85,6.513-4.388,11.11l0.064,0.336h26.141
			V109.772z"/>
		<path fill="#079BB5" d="M176.705,152.05c-6.797,0-12.042-1.74-15.732-5.231c-3.695-3.492-5.54-8.396-5.54-14.728
			c0-6.323,2.5-11.24,7.497-14.754c5-3.513,12.089-5.266,21.272-5.266h11.484v-5.809c0-3.467-1.014-6.167-3.041-8.108
			c-2.025-1.931-4.827-2.901-8.409-2.901c-3.577,0-6.371,0.797-8.373,2.396c-2.005,1.598-3.006,3.706-3.006,6.314h-14.25
			l-0.067-0.336c-0.27-5.36,2.093-10.006,7.09-13.945c5-3.94,11.415-5.91,19.249-5.91c7.834,0,14.048,1.969,18.64,5.91
			c4.593,3.938,6.89,9.511,6.89,16.712v29.246c0,5.404,0.789,10.444,2.365,15.129l-14.994,0.069
			c-1.082-3.423-1.753-6.645-2.028-9.659c-2.16,3.241-4.884,5.862-8.169,7.868C184.294,151.051,180.669,152.05,176.705,152.05z
			 M170.157,131.994h0.065c0,2.565,0.823,4.569,2.466,6.01c1.645,1.441,4.13,2.164,7.461,2.164c3.333,0,6.487-0.904,9.458-2.707
			c2.973-1.795,4.973-3.938,6.011-6.412v-9.728h-11.751c-4.144,0-7.466,1.023-9.963,3.07
			C171.403,126.446,170.157,128.978,170.157,131.994z"/>
		<path fill="#079BB5" d="M241.611,55.81v94.824h-14.725V55.81H241.611z"/>
		<path fill="#079BB5" d="M261.803,69.047h14.793v15.941h11.82v10.943h-11.82v36.332c0,5.043,2.138,7.565,6.416,7.565
			c1.709,0,3.242-0.271,4.594-0.811l1.554,10.871c-2.749,1.44-6.057,2.16-9.93,2.16c-11.617,0-17.427-6.594-17.427-19.786V95.932
			h-9.996V84.988h9.996V69.047z"/>
		<path fill="#079BB5" d="M316.106,93.363c4.682-6.485,10.715-9.728,18.099-9.728c7.386,0,12.978,2.229,16.784,6.689
			c3.802,4.455,5.707,11.209,5.707,20.258v40.052h-14.724v-40.183c0-5.137-1.012-8.87-3.037-11.213
			c-2.029-2.343-5.159-3.514-9.389-3.514c-5.718,0-10.22,2.255-13.506,6.758v48.152h-14.722V55.81h14.722L316.106,93.363z"/>
	</g>
	<path fill-rule="evenodd" clip-rule="evenodd" fill="#F15F60" d="M505.83,225.896c-1.185,2.852-4.066,4.615-7.146,4.378
		l-2.785-0.107c-3.05,0.063-5.765-1.928-6.622-4.86L463.421,47.812c-0.377-2.565-1.174-2.59-1.765-0.048l-26.577,113.229
		c-1.122,2.902-3.919,4.813-7.031,4.811l-2.588,0.088c-3.142,0.188-6.108-1.51-7.532-4.316L395.299,96.88
		c-0.874-2.487-1.922-2.425-2.334,0.137l-8.879,55.325c-0.863,2.842-3.729,4.593-6.656,4.06l-2.947-0.294
		c-3.246-0.315-5.567-2.676-5.156-5.237l13.549-84.4c0.906-2.941,3.604-4.952,6.677-4.985l2.677-0.15
		c3.127-0.274,6.105,1.385,7.521,4.179l23.924,68.364c0.868,2.483,2.061,2.447,2.661-0.096L456.066,7.127
		c1.112-2.871,3.964-4.679,7.025-4.448l2.813,0.076c3.042-0.088,5.769,1.894,6.619,4.817l26.239,180.041
		c0.366,2.557,1.211,2.595,1.88,0.063l5.891-22.489c1.193-2.877,4.042-4.711,7.149-4.594h48.382
		c2.924-0.292,5.561,1.774,5.958,4.688v2.343c-0.397,2.907-3.034,4.981-5.958,4.687H525.8c-3.111-0.114-5.965,1.712-7.148,4.589
		L505.83,225.896z"/>
	<g>
		<path fill="#3F4850" d="M564.633,144.284c-5.993,5.178-13.825,7.766-23.506,7.766c-9.684,0-17.301-3.015-22.865-9.05
			c-5.555-6.032-8.337-13.889-8.337-23.569v-2.43c0-9.634,2.731-17.597,8.205-23.874c5.472-6.284,12.48-9.414,21.038-9.389
			c8.554,0.022,15.207,2.679,19.958,7.967c4.751,5.294,7.128,12.529,7.128,21.716v8.711h-40.996l-0.135,0.339
			c0.27,5.357,1.833,9.656,4.693,12.898c2.858,3.244,6.72,4.861,11.58,4.861c3.875,0,7.217-0.444,10.03-1.348
			c2.81-0.9,5.614-2.319,8.406-4.254l4.73,9.655H564.633z M551.728,109.772c0-4.276-1.089-7.699-3.274-10.265
			c-2.183-2.568-5.22-3.853-9.113-3.853c-3.899,0-7.039,1.41-9.427,4.227c-2.386,2.811-3.852,6.513-4.39,11.11l0.07,0.336h26.134
			V109.772z"/>
		<path fill="#3F4850" d="M581.854,69.047h14.79v15.941h11.819v10.943h-11.819v36.332c0,5.043,2.138,7.565,6.418,7.565
			c1.706,0,3.235-0.271,4.588-0.811l1.557,10.871c-2.754,1.44-6.058,2.16-9.929,2.16c-11.622,0-17.424-6.594-17.424-19.786V95.932
			h-9.994V84.988h9.994V69.047z"/>
		<path fill="#3F4850" d="M636.224,150.634h-14.791v-65.78h13.506l0.945,9.52c3.604-7.159,8.776-10.739,15.536-10.739
			c1.709,0,3.238,0.251,4.589,0.748l-1.825,13.772l-6.28-0.201c-5.624,0-9.523,2.324-11.68,6.958V150.634z"/>
		<path fill="#3F4850" d="M680.324,55.81v12.968h-14.723V55.81H680.324z M680.324,84.854v65.78h-14.723v-65.78H680.324z"/>
		<path fill="#3F4850" d="M708.823,118.961h-0.068c0,14.18,5.093,21.27,15.267,21.27c3.646,0,6.684-1.055,9.116-3.171
			c2.432-2.116,3.651-4.774,3.651-7.97h13.37l0.135,0.336c0.223,6.171-2.262,11.482-7.467,15.942
			c-5.197,4.455-11.469,6.682-18.806,6.682c-9.502,0-16.885-3.039-22.152-9.112c-5.267-6.082-7.904-14.073-7.904-23.977v-2.099
			c0-9.859,2.638-17.835,7.904-23.939c5.268-6.104,12.65-9.151,22.152-9.151c7.924,0,14.349,2.293,19.285,6.887
			c4.927,4.593,7.305,10.447,7.122,17.562l-0.135,0.339h-13.44c0-3.693-1.18-6.767-3.545-9.219c-2.366-2.456-5.438-3.687-9.22-3.687
			c-5.312,0-9.184,1.89-11.614,5.677c-2.436,3.781-3.651,8.962-3.651,15.53V118.961z"/>
		<path fill="#3F4850" d="M796.188,138.949c2.047-1.437,3.07-3.378,3.07-5.809s-1.002-4.391-3.01-5.875
			c-2.001-1.484-5.595-2.792-10.771-3.916c-8.104-1.758-14.114-4.176-18.03-7.259c-3.919-3.084-5.871-7.333-5.871-12.733
			c0-5.404,2.349-10.02,7.052-13.844c4.707-3.831,10.943-5.741,18.713-5.741c7.764,0,14.023,1.948,18.776,5.841
			c4.744,3.894,7.009,8.814,6.781,14.755l-0.135,0.405H798.65c0-2.835-1.059-5.199-3.176-7.09c-2.115-1.89-4.919-2.838-8.407-2.838
			c-3.493,0-6.193,0.778-8.106,2.336c-1.911,1.551-2.872,3.529-2.872,5.941c0,2.408,0.914,4.265,2.738,5.57
			c1.828,1.306,5.366,2.474,10.638,3.51c8.424,1.759,14.586,4.202,18.506,7.329c3.918,3.134,5.877,7.33,5.877,12.596
			c0,5.944-2.433,10.751-7.298,14.422c-4.864,3.668-11.389,5.501-19.584,5.501c-8.193,0-14.815-2.11-19.854-6.347
			c-5.044-4.232-7.458-9.319-7.229-15.263l0.135-0.404h13.711c0.176,3.691,1.496,6.439,3.95,8.238c2.455,1.8,5.664,2.7,9.623,2.7
			l0.069,0.134C791.202,141.108,794.131,140.392,796.188,138.949z"/>
	</g>
</g>
</svg>
