<?xml version="1.0" encoding="utf-8"?>
<!-- Generator: Adobe Illustrator 16.0.0, SVG Export Plug-In . SVG Version: 6.00 Build 0)  -->
<!DOCTYPE svg PUBLIC "-//W3C//DTD SVG 1.1//EN" "http://www.w3.org/Graphics/SVG/1.1/DTD/svg11.dtd">
<svg version="1.1" id="Layer_1" xmlns="http://www.w3.org/2000/svg" xmlns:xlink="http://www.w3.org/1999/xlink" x="0px" y="0px"
	 width="258px" height="98px" viewBox="0 0 258 98" enable-background="new 0 0 258 98" xml:space="preserve">
<g enable-background="new    ">
	<path fill="#6C6F71" d="M166.475,9.555h-3.164v5.137h-1.729V1.898h4.893c1.354,0,2.412,0.347,3.174,1.04s1.143,1.628,1.143,2.803
		s-0.379,2.104-1.138,2.788S167.836,9.555,166.475,9.555z M163.311,3.256v4.951h3.164c0.846,0,1.489-0.225,1.929-0.674
		s0.659-1.045,0.659-1.787s-0.221-1.343-0.664-1.802s-1.084-0.688-1.924-0.688H163.311z"/>
	<path fill="#6C6F71" d="M172.266,10.063V9.867c0-1.433,0.385-2.598,1.152-3.496s1.803-1.348,3.105-1.348s2.338,0.447,3.105,1.343
		s1.152,2.063,1.152,3.501v0.195c0,1.445-0.383,2.612-1.147,3.501s-1.8,1.333-3.105,1.333s-2.343-0.446-3.11-1.338
		S172.266,11.501,172.266,10.063z M174.004,9.867v0.195c0,1.055,0.217,1.897,0.649,2.529s1.056,0.947,1.87,0.947
		s1.439-0.317,1.875-0.952s0.654-1.477,0.654-2.524V9.867c0-1.035-0.22-1.873-0.659-2.515s-1.064-0.962-1.875-0.962
		s-1.433,0.32-1.865,0.962S174.004,8.832,174.004,9.867z"/>
	<path fill="#6C6F71" d="M183.77,5.18l1.572,6.045l0.205,1.152h0.049l0.244-1.152l1.904-6.045h1.387l1.904,6.045l0.273,1.289h0.059
		l0.254-1.289l1.494-6.045h1.719l-2.764,9.512h-1.396L188.838,8.9l-0.391-1.621l-0.059,0.01L188.018,8.9l-1.816,5.791h-1.396
		l-2.754-9.512H183.77z"/>
	<path fill="#6C6F71" d="M200.469,14.896c-1.322,0-2.375-0.437-3.159-1.309s-1.177-2.021-1.177-3.447V9.75
		c0-1.335,0.398-2.456,1.196-3.364s1.757-1.362,2.876-1.362c1.264,0,2.229,0.379,2.896,1.138s1.001,1.799,1.001,3.12v1.084h-6.172
		l-0.029,0.039c0.02,0.938,0.256,1.694,0.708,2.271s1.073,0.864,1.86,0.864c1.107,0,2.006-0.313,2.695-0.938l0.684,1.123h-0.01
		C203.043,14.506,201.92,14.896,200.469,14.896z M202.363,8.783c0-0.716-0.186-1.294-0.557-1.733s-0.904-0.659-1.602-0.659
		c-0.572,0-1.066,0.241-1.479,0.723s-0.669,1.097-0.767,1.846l0.02,0.049h4.385V8.783z"/>
	<path fill="#6C6F71" d="M207.783,14.701h-1.729V5.189h1.543l0.166,1.387c0.58-1.048,1.367-1.572,2.363-1.572
		c0.234,0,0.455,0.032,0.664,0.098l-0.234,1.621l-0.889-0.059c-0.893,0-1.52,0.413-1.885,1.24V14.701z"/>
	<path fill="#6C6F71" d="M216.162,14.896c-1.322,0-2.375-0.437-3.159-1.309s-1.177-2.021-1.177-3.447V9.75
		c0-1.335,0.398-2.456,1.196-3.364s1.757-1.362,2.876-1.362c1.264,0,2.229,0.379,2.896,1.138s1.001,1.799,1.001,3.12v1.084h-6.172
		l-0.029,0.039c0.02,0.938,0.256,1.694,0.708,2.271s1.073,0.864,1.86,0.864c1.107,0,2.006-0.313,2.695-0.938l0.684,1.123h-0.01
		C218.736,14.506,217.613,14.896,216.162,14.896z M218.057,8.783c0-0.716-0.186-1.294-0.557-1.733s-0.904-0.659-1.602-0.659
		c-0.572,0-1.066,0.241-1.479,0.723s-0.669,1.097-0.767,1.846l0.02,0.049h4.385V8.783z"/>
	<path fill="#6C6F71" d="M222.324,6.41c0.658-0.925,1.557-1.387,2.695-1.387s2.016,0.403,2.627,1.211V1h1.738v13.711h-1.416
		l-0.205-1.172c-0.631,0.905-1.529,1.357-2.695,1.357s-2.076-0.415-2.734-1.245s-0.986-1.941-0.986-3.335l-0.01-0.186
		C221.338,8.575,221.666,7.335,222.324,6.41z M223.086,10.131v0.186c0,0.996,0.2,1.774,0.601,2.334s1.005,0.84,1.812,0.84
		c0.977,0,1.699-0.446,2.168-1.338V7.719c-0.482-0.859-1.197-1.289-2.148-1.289c-0.814,0-1.422,0.33-1.826,0.991
		S223.086,8.985,223.086,10.131z"/>
	<path fill="#6C6F71" d="M245.176,10.131v0.186c0,1.394-0.33,2.505-0.991,3.335s-1.563,1.245-2.71,1.245
		c-1.244,0-2.174-0.481-2.793-1.445l-0.205,1.26h-1.416V1h1.729v5.322c0.625-0.866,1.518-1.299,2.676-1.299s2.066,0.462,2.725,1.387
		S245.176,8.575,245.176,10.131z M240.996,6.43c-1.016,0-1.758,0.481-2.227,1.445v4.121c0.475,0.996,1.227,1.494,2.256,1.494
		c0.801,0,1.404-0.281,1.812-0.845s0.61-1.34,0.61-2.329l-0.02-0.186c0-1.133-0.205-2.033-0.615-2.7S241.797,6.43,240.996,6.43z"/>
	<path fill="#6C6F71" d="M247.979,18.959c-0.248,0-0.59-0.046-1.025-0.137l0.176-1.367c0.43,0.032,0.688,0.049,0.771,0.049
		c0.338,0,0.623-0.144,0.854-0.43s0.44-0.671,0.63-1.152l0.41-0.996l-3.535-9.316h1.934l2.021,5.986l0.303,1.191h0.059l2.334-7.178
		h1.924l-3.994,10.967C250.234,18.165,249.281,18.959,247.979,18.959z"/>
</g>
<g>
	<g>
		<path fill="#059AB5" d="M24.001,44.709v27.516h-4.558V60.483H7.114v11.741h-4.6V44.709h4.6v12.099h12.33V44.709H24.001z"/>
		<path fill="#059AB5" d="M45.721,70.25c-1.862,1.61-4.299,2.415-7.309,2.415c-3.011,0-5.381-0.938-7.111-2.814
			c-1.729-1.876-2.593-4.319-2.593-7.33v-0.756c0-2.996,0.85-5.473,2.551-7.425c1.702-1.954,3.883-2.928,6.543-2.92
			c2.66,0.007,4.729,0.833,6.207,2.478c1.477,1.646,2.216,3.896,2.216,6.754v2.709h-12.75l-0.042,0.105
			c0.084,1.666,0.571,3.003,1.46,4.012s2.09,1.512,3.603,1.512c1.204,0,2.244-0.139,3.12-0.419c0.875-0.28,1.747-0.722,2.615-1.323
			l1.469,3.003H45.721z M41.709,59.517c0-1.33-0.34-2.395-1.019-3.192c-0.68-0.799-1.625-1.198-2.836-1.198
			c-1.212,0-2.188,0.438-2.93,1.314c-0.743,0.874-1.197,2.025-1.365,3.455L33.58,60h8.13V59.517z"/>
		<path fill="#059AB5" d="M55.719,72.665c-2.114,0-3.745-0.541-4.893-1.627c-1.149-1.086-1.723-2.611-1.723-4.58
			c0-1.967,0.777-3.496,2.332-4.589c1.555-1.093,3.76-1.638,6.616-1.638h3.572v-1.807c0-1.078-0.315-1.918-0.946-2.521
			c-0.63-0.601-1.501-0.902-2.615-0.902c-1.112,0-1.981,0.248-2.604,0.745c-0.624,0.497-0.935,1.152-0.935,1.964H50.09l-0.021-0.104
			c-0.084-1.667,0.651-3.112,2.205-4.337c1.555-1.226,3.55-1.838,5.986-1.838s4.369,0.612,5.797,1.838
			c1.429,1.225,2.143,2.958,2.143,5.197v9.096c0,1.681,0.245,3.248,0.735,4.705l-4.663,0.021c-0.336-1.064-0.545-2.066-0.631-3.004
			c-0.672,1.008-1.519,1.823-2.541,2.447C58.079,72.354,56.952,72.665,55.719,72.665z M53.682,66.428h0.021
			c0,0.798,0.256,1.421,0.767,1.869c0.512,0.448,1.285,0.673,2.321,0.673c1.037,0,2.018-0.281,2.941-0.842
			c0.925-0.559,1.547-1.225,1.87-1.994v-3.025h-3.655c-1.289,0-2.322,0.318-3.099,0.955C54.07,64.702,53.682,65.489,53.682,66.428z"
			/>
		<path fill="#059AB5" d="M75.905,42.734v29.491h-4.58V42.734H75.905z"/>
		<path fill="#059AB5" d="M82.185,46.851h4.601v4.958h3.676v3.403h-3.676v11.3c0,1.568,0.665,2.353,1.995,2.353
			c0.532,0,1.008-0.084,1.429-0.252l0.483,3.381c-0.855,0.448-1.884,0.672-3.088,0.672c-3.613,0-5.42-2.051-5.42-6.153v-11.3h-3.108
			v-3.403h3.108V46.851z"/>
		<path fill="#059AB5" d="M99.073,54.413c1.456-2.017,3.333-3.025,5.629-3.025c2.297,0,4.036,0.693,5.22,2.08
			c1.183,1.386,1.775,3.486,1.775,6.301v12.456h-4.579V59.728c0-1.598-0.315-2.759-0.945-3.487c-0.631-0.729-1.604-1.093-2.92-1.093
			c-1.778,0-3.179,0.701-4.201,2.102v14.976h-4.579V42.734h4.579L99.073,54.413z"/>
	</g>
	<path fill-rule="evenodd" clip-rule="evenodd" fill="#F05E60" d="M158.078,95.632c-0.368,0.887-1.265,1.436-2.223,1.361
		l-0.866-0.033c-0.948,0.02-1.793-0.6-2.06-1.512l-8.041-55.202c-0.117-0.798-0.365-0.806-0.549-0.015l-8.266,35.215
		c-0.349,0.902-1.219,1.497-2.187,1.496l-0.805,0.027c-0.978,0.059-1.9-0.47-2.343-1.343l-7.038-20.12
		c-0.272-0.773-0.598-0.754-0.726,0.043l-2.761,17.206c-0.269,0.884-1.16,1.429-2.07,1.263l-0.917-0.092
		c-1.009-0.098-1.731-0.832-1.604-1.629l4.214-26.249c0.282-0.915,1.121-1.54,2.077-1.55l0.833-0.046
		c0.973-0.085,1.899,0.431,2.339,1.299l7.44,21.262c0.271,0.772,0.642,0.761,0.828-0.03l9.246-39.39
		c0.346-0.893,1.232-1.455,2.185-1.383l0.875,0.024c0.946-0.027,1.794,0.589,2.059,1.498l8.16,55.994
		c0.114,0.795,0.377,0.807,0.585,0.02l1.832-6.994c0.371-0.895,1.257-1.465,2.224-1.429h15.047c0.909-0.091,1.729,0.552,1.853,1.458
		v0.729c-0.123,0.904-0.943,1.549-1.853,1.457h-11.278c-0.968-0.035-1.855,0.533-2.224,1.428L158.078,95.632z"/>
	<g>
		<path fill="#3E4850" d="M176.366,70.25c-1.864,1.61-4.3,2.415-7.311,2.415c-3.012,0-5.381-0.938-7.111-2.814
			c-1.728-1.876-2.593-4.319-2.593-7.33v-0.756c0-2.996,0.85-5.473,2.552-7.425c1.702-1.954,3.882-2.928,6.543-2.92
			c2.66,0.007,4.729,0.833,6.207,2.478c1.478,1.646,2.217,3.896,2.217,6.754v2.709h-12.75l-0.042,0.105
			c0.084,1.666,0.57,3.003,1.46,4.012c0.889,1.009,2.09,1.512,3.602,1.512c1.205,0,2.244-0.139,3.119-0.419
			c0.874-0.28,1.746-0.722,2.614-1.323l1.472,3.003H176.366z M172.353,59.517c0-1.33-0.339-2.395-1.019-3.192
			c-0.679-0.799-1.623-1.198-2.834-1.198c-1.213,0-2.189,0.438-2.932,1.314c-0.742,0.874-1.198,2.025-1.365,3.455L164.225,60h8.128
			V59.517z"/>
		<path fill="#3E4850" d="M181.722,46.851h4.6v4.958h3.676v3.403h-3.676v11.3c0,1.568,0.665,2.353,1.996,2.353
			c0.531,0,1.007-0.084,1.427-0.252l0.484,3.381c-0.856,0.448-1.884,0.672-3.088,0.672c-3.614,0-5.419-2.051-5.419-6.153v-11.3
			h-3.108v-3.403h3.108V46.851z"/>
		<path fill="#3E4850" d="M198.631,72.225h-4.6V51.767h4.2l0.294,2.961c1.121-2.227,2.729-3.34,4.832-3.34
			c0.531,0,1.007,0.078,1.427,0.232l-0.567,4.283l-1.953-0.063c-1.749,0-2.962,0.723-3.633,2.164V72.225z"/>
		<path fill="#3E4850" d="M212.347,42.734v4.033h-4.579v-4.033H212.347z M212.347,51.767v20.458h-4.579V51.767H212.347z"/>
		<path fill="#3E4850" d="M221.21,62.374h-0.021c0,4.41,1.584,6.615,4.748,6.615c1.134,0,2.079-0.328,2.835-0.986
			c0.757-0.658,1.136-1.484,1.136-2.479h4.158l0.042,0.104c0.069,1.919-0.703,3.571-2.322,4.958
			c-1.616,1.386-3.566,2.078-5.849,2.078c-2.955,0-5.251-0.945-6.89-2.834c-1.638-1.892-2.458-4.377-2.458-7.457v-0.652
			c0-3.066,0.82-5.547,2.458-7.445c1.639-1.898,3.935-2.846,6.89-2.846c2.465,0,4.463,0.713,5.998,2.142
			c1.532,1.429,2.271,3.249,2.215,5.462l-0.042,0.105h-4.18c0-1.148-0.367-2.104-1.103-2.867c-0.736-0.764-1.691-1.146-2.867-1.146
			c-1.652,0-2.856,0.588-3.612,1.766c-0.758,1.176-1.136,2.787-1.136,4.83V62.374z"/>
		<path fill="#3E4850" d="M248.381,68.591c0.637-0.447,0.955-1.051,0.955-1.807s-0.312-1.365-0.937-1.827
			c-0.622-0.462-1.739-0.868-3.35-1.218c-2.521-0.547-4.39-1.299-5.607-2.258c-1.219-0.959-1.826-2.28-1.826-3.96
			c0-1.681,0.73-3.116,2.193-4.306c1.464-1.191,3.403-1.785,5.819-1.785c2.415,0,4.361,0.605,5.84,1.816
			c1.476,1.211,2.18,2.741,2.109,4.589l-0.042,0.126h-4.39c0-0.882-0.329-1.617-0.987-2.205s-1.53-0.883-2.615-0.883
			c-1.086,0-1.926,0.242-2.521,0.727c-0.595,0.482-0.894,1.098-0.894,1.848c0,0.749,0.284,1.326,0.852,1.732
			c0.568,0.406,1.669,0.77,3.309,1.092c2.619,0.547,4.536,1.307,5.755,2.279c1.219,0.975,1.828,2.279,1.828,3.917
			c0,1.849-0.757,3.344-2.27,4.485c-1.513,1.141-3.542,1.711-6.091,1.711c-2.548,0-4.607-0.656-6.175-1.974
			c-1.568-1.316-2.319-2.898-2.248-4.747l0.042-0.126h4.264c0.055,1.148,0.466,2.003,1.229,2.563c0.764,0.56,1.762,0.84,2.993,0.84
			l0.021,0.042C246.83,69.263,247.741,69.039,248.381,68.591z"/>
	</g>
</g>
</svg>
