<?xml version="1.0" encoding="utf-8"?>
<!-- Generator: Adobe Illustrator 16.0.0, SVG Export Plug-In . SVG Version: 6.00 Build 0)  -->
<!DOCTYPE svg PUBLIC "-//W3C//DTD SVG 1.1//EN" "http://www.w3.org/Graphics/SVG/1.1/DTD/svg11.dtd">
<svg version="1.1" id="Layer_1" xmlns="http://www.w3.org/2000/svg" xmlns:xlink="http://www.w3.org/1999/xlink" x="0px" y="0px"
	 width="5401px" height="1341px" viewBox="0 0 5401 1341" enable-background="new 0 0 5401 1341" xml:space="preserve">
<g enable-background="new    ">
	<path fill="#6D7071" d="M3964.238,147.437h-51.45v83.525h-28.106V22.944h79.557c22.012,0,39.224,5.637,51.608,16.911
		c12.386,11.273,18.577,26.47,18.577,45.572c0,19.104-6.159,34.22-18.5,45.336C4003.586,141.879,3986.373,147.437,3964.238,147.437z
		 M3912.788,45.015v80.508h51.45c13.753,0,24.215-3.651,31.36-10.956c7.149-7.305,10.72-16.991,10.72-29.06
		c0-12.068-3.589-21.833-10.798-29.297c-7.21-7.462-17.626-11.195-31.282-11.195H3912.788z"/>
	<path fill="#6D7071" d="M4058.405,155.694v-3.176c0-23.295,6.253-42.239,18.733-56.848c12.482-14.609,29.317-21.914,50.5-21.914
		c21.182,0,38.012,7.273,50.494,21.834c12.481,14.562,18.738,33.537,18.738,56.927v3.176c0,23.501-6.225,42.477-18.661,56.927
		c-12.432,14.45-29.266,21.676-50.494,21.676c-21.233,0-38.095-7.258-50.577-21.755
		C4064.658,198.043,4058.405,179.085,4058.405,155.694z M4086.667,152.519v3.176c0,17.149,3.524,30.853,10.56,41.127
		c7.034,10.275,17.166,15.404,30.412,15.404c13.241,0,23.404-5.161,30.484-15.483c7.085-10.321,10.642-24.01,10.642-41.048v-3.176
		c0-16.832-3.575-30.456-10.719-40.889c-7.146-10.434-17.31-15.642-30.49-15.642c-13.177,0-23.295,5.208-30.329,15.642
		C4090.191,122.063,4086.667,135.687,4086.667,152.519z"/>
	<path fill="#6D7071" d="M4245.461,76.298l25.566,98.293l3.336,18.738h0.791l3.971-18.738l30.964-98.293h22.549l30.964,98.293
		l4.448,20.96h0.953l4.127-20.96l24.298-98.293h27.944l-44.935,154.664h-22.711l-29.851-94.164l-6.354-26.36l-0.953,0.159
		l-6.032,26.201l-29.535,94.164h-22.711l-44.775-154.664H4245.461z"/>
	<path fill="#6D7071" d="M4517,234.297c-21.502,0-38.621-7.099-51.369-21.279c-12.755-14.18-19.136-32.87-19.136-56.054v-6.352
		c0-21.707,6.478-39.937,19.452-54.704c12.97-14.768,28.567-22.152,46.764-22.152c20.546,0,36.235,6.162,47.08,18.5
		c10.849,12.338,16.277,29.25,16.277,50.735v17.625h-100.359l-0.473,0.635c0.316,15.243,4.159,27.551,11.512,36.919
		c7.352,9.369,17.451,14.054,30.252,14.054c18.006,0,32.615-5.082,43.826-15.245l11.116,18.262h-0.162
		C4558.856,227.945,4540.596,234.297,4517,234.297z M4547.802,134.893c0-11.64-3.015-21.041-9.051-28.187
		c-6.032-7.146-14.704-10.719-26.04-10.719c-9.308,0-17.341,3.922-24.059,11.751c-6.717,7.828-10.877,17.833-12.464,30.013
		l0.318,0.793h71.295V134.893z"/>
	<path fill="#6D7071" d="M4635.936,231.121h-28.107V76.457h25.089l2.7,22.549c9.433-17.038,22.231-25.566,38.426-25.566
		c3.811,0,7.399,0.524,10.799,1.588l-3.809,26.359l-14.452-0.952c-14.515,0-24.71,6.716-30.646,20.167V231.121z"/>
	<path fill="#6D7071" d="M4772.18,234.297c-21.505,0-38.62-7.099-51.373-21.279c-12.748-14.18-19.135-32.87-19.135-56.054v-6.352
		c0-21.707,6.48-39.937,19.451-54.704c12.976-14.768,28.566-22.152,46.769-22.152c20.547,0,36.237,6.162,47.081,18.5
		c10.845,12.338,16.276,29.25,16.276,50.735v17.625h-100.357l-0.479,0.635c0.318,15.243,4.164,27.551,11.516,36.919
		c7.353,9.369,17.451,14.054,30.252,14.054c18.002,0,32.615-5.082,43.822-15.245l11.117,18.262h-0.157
		C4814.033,227.945,4795.771,234.297,4772.18,234.297z M4802.982,134.893c0-11.64-3.014-21.041-9.051-28.187
		c-6.037-7.146-14.704-10.719-26.04-10.719c-9.308,0-17.341,3.922-24.059,11.751c-6.718,7.828-10.877,17.833-12.463,30.013
		l0.317,0.793h71.295V134.893z"/>
	<path fill="#6D7071" d="M4872.376,96.306c10.702-15.038,25.31-22.549,43.829-22.549c18.514,0,32.771,6.559,42.713,19.69V8.334
		h28.264v222.947h-23.022l-3.335-19.056c-10.257,14.72-24.867,22.072-43.828,22.072s-33.756-6.75-44.464-20.247
		c-10.7-13.496-16.038-31.567-16.038-54.228l-0.156-3.017C4856.338,131.51,4861.675,111.343,4872.376,96.306z M4884.762,156.806
		v3.017c0,16.197,3.254,28.853,9.768,37.952c6.51,9.098,16.337,13.656,29.455,13.656c15.877,0,27.628-7.257,35.252-21.755v-72.091
		c-7.844-13.974-19.467-20.961-34.934-20.961c-13.248,0-23.119,5.368-29.695,16.118
		C4888.033,123.491,4884.762,138.18,4884.762,156.806z"/>
	<path fill="#6D7071" d="M5243.949,156.806v3.017c0,22.66-5.363,40.731-16.115,54.228c-10.748,13.498-25.421,20.247-44.063,20.247
		c-20.23,0-35.349-7.829-45.416-23.502l-3.335,20.485h-23.027V8.334h28.106v86.543c10.164-14.086,24.68-21.12,43.511-21.12
		c18.829,0,33.599,7.511,44.302,22.549C5238.617,111.343,5243.949,131.51,5243.949,156.806z M5175.986,96.623
		c-16.513,0-28.58,7.83-36.203,23.502v67.01c7.719,16.197,19.943,24.295,36.682,24.295c13.021,0,22.834-4.573,29.454-13.735
		c6.626-9.163,9.923-21.786,9.923-37.873l-0.316-3.017c0-18.419-3.331-33.061-10.002-43.906
		C5198.852,102.055,5189.011,96.623,5175.986,96.623z"/>
	<path fill="#6D7071" d="M5289.525,300.355c-4.035,0-9.592-0.747-16.674-2.223l2.857-22.231c6.99,0.524,11.181,0.793,12.547,0.793
		c5.494,0,10.131-2.334,13.895-6.986c3.764-4.653,7.158-10.909,10.242-18.738l6.666-16.196l-57.482-151.488h31.441l32.873,97.339
		l4.918,19.374h0.957l37.949-116.713H5401l-64.95,178.324C5326.209,287.445,5310.709,300.355,5289.525,300.355z"/>
</g>
<g>
	<g>
		<path fill="#079BB5" d="M2584.305,695.946v335.57h-55.584V888.325h-150.365v143.191h-56.102v-335.57h56.102v147.551h150.365
			V695.946H2584.305z"/>
		<path fill="#079BB5" d="M2849.186,1007.435c-22.713,19.64-52.434,29.453-89.139,29.453c-36.727,0-65.623-11.434-86.724-34.323
			c-21.084-22.88-31.626-52.678-31.626-89.396v-9.218c0-36.54,10.369-66.743,31.115-90.551
			c20.752-23.831,47.354-35.705,79.801-35.61c32.444,0.084,57.672,10.16,75.699,30.216c18.009,20.079,27.022,47.52,27.022,82.367
			v33.038h-155.5l-0.511,1.286c1.025,20.318,6.96,36.623,17.806,48.926c10.843,12.303,25.487,18.437,43.935,18.437
			c14.683,0,27.361-1.691,38.044-5.109c10.667-3.419,21.302-8.802,31.896-16.138l17.92,36.622H2849.186z M2800.265,876.534
			c0-16.221-4.145-29.202-12.426-38.933c-8.292-9.742-19.821-14.613-34.587-14.613c-14.779,0-26.691,5.347-35.735,16.03
			c-9.059,10.659-14.604,24.701-16.644,42.137l0.242,1.274h99.149V876.534z"/>
		<path fill="#079BB5" d="M2971.117,1036.888c-25.78,0-45.674-6.598-59.674-19.842c-14.014-13.243-21.008-31.847-21.008-55.856
			c0-23.986,9.479-42.638,28.434-55.964c18.959-13.328,45.854-19.974,80.682-19.974h43.563V863.22
			c0-13.149-3.848-23.391-11.536-30.751c-7.682-7.325-18.313-11.006-31.896-11.006c-13.564,0-24.165,3.025-31.757,9.088
			c-7.605,6.062-11.404,14.054-11.404,23.95h-54.046l-0.255-1.273c-1.024-20.33,7.937-37.957,26.892-52.893
			c18.962-14.946,43.293-22.414,73.007-22.414s53.282,7.468,70.695,22.414c17.426,14.936,26.136,36.075,26.136,63.385v110.928
			c0,20.497,2.991,39.612,8.969,57.382l-56.868,0.261c-4.104-12.981-6.653-25.2-7.695-36.634
			c-8.192,12.291-18.523,22.235-30.98,29.846C2999.902,1033.101,2986.151,1036.888,2971.117,1036.888z M2946.278,960.819h0.252
			c0,9.73,3.12,17.329,9.349,22.796c6.238,5.467,15.666,8.206,28.303,8.206c12.643,0,24.607-3.431,35.873-10.267
			c11.277-6.813,18.865-14.935,22.799-24.319v-36.896h-44.569c-15.714,0-28.316,3.883-37.792,11.647
			C2951.006,939.775,2946.278,949.375,2946.278,960.819z"/>
		<path fill="#079BB5" d="M3217.299,671.858v359.658h-55.851V671.858H3217.299z"/>
		<path fill="#079BB5" d="M3293.884,722.07h56.112v60.46h44.828v41.506h-44.828v137.809c0,19.126,8.105,28.69,24.334,28.69
			c6.484,0,12.295-1.024,17.423-3.073l5.894,41.231c-10.424,5.467-22.971,8.194-37.664,8.194c-44.059,0-66.099-25.01-66.099-75.043
			V824.036h-37.909V782.53h37.909V722.07z"/>
		<path fill="#079BB5" d="M3499.851,814.293c17.757-24.593,40.643-36.896,68.648-36.896c28.013,0,49.225,8.456,63.659,25.368
			c14.424,16.899,21.646,42.518,21.646,76.842v151.909h-55.847v-152.41c0-19.484-3.841-33.645-11.522-42.529
			c-7.695-8.885-19.562-13.327-35.611-13.327c-21.688,0-38.766,8.552-51.229,25.63v182.637h-55.839V671.858h55.839L3499.851,814.293
			z"/>
	</g>
	<path fill-rule="evenodd" clip-rule="evenodd" fill="#F15F60" d="M4219.453,1316.981c-4.488,10.814-15.424,17.509-27.108,16.603
		l-10.563-0.404c-11.563,0.238-21.867-7.313-25.118-18.437l-98.065-673.219c-1.429-9.73-4.452-9.825-6.691-0.185l-100.806,429.467
		c-4.252,11.005-14.862,18.258-26.668,18.246l-9.81,0.333c-11.923,0.716-23.179-5.728-28.572-16.375l-85.83-245.378
		c-3.315-9.433-7.294-9.194-8.854,0.523l-33.676,209.839c-3.274,10.778-14.141,17.425-25.248,15.399l-11.178-1.119
		c-12.309-1.19-21.114-10.147-19.555-19.866l51.392-320.116c3.437-11.154,13.672-18.782,25.325-18.907l10.151-0.565
		c11.864-1.042,23.161,5.252,28.53,15.846l90.737,259.3c3.299,9.421,7.823,9.277,10.097-0.369l112.763-480.387
		c4.217-10.886,15.031-17.746,26.644-16.871l10.669,0.292c11.543-0.333,21.882,7.182,25.107,18.27l99.519,682.877
		c1.395,9.694,4.597,9.837,7.133,0.237l22.344-85.297c4.523-10.91,15.328-17.865,27.119-17.425h183.506
		c11.088-1.107,21.091,6.729,22.592,17.782v8.885c-1.501,11.028-11.504,18.889-22.592,17.769H4295.2
		c-11.805-0.429-22.63,6.503-27.119,17.413L4219.453,1316.981z"/>
	<g>
		<path fill="#3F4850" d="M4442.488,1007.435c-22.737,19.64-52.438,29.453-89.157,29.453c-36.729,0-65.622-11.434-86.727-34.323
			c-21.07-22.88-31.622-52.678-31.622-89.396v-9.218c0-36.54,10.362-66.743,31.121-90.551c20.76-23.831,47.341-35.705,79.795-35.61
			c32.443,0.084,57.679,10.16,75.698,30.216c18.021,20.079,27.037,47.52,27.037,82.367v33.038h-155.493l-0.515,1.286
			c1.025,20.318,6.957,36.623,17.806,48.926c10.839,12.303,25.487,18.437,43.925,18.437c14.696,0,27.367-1.691,38.037-5.109
			c10.659-3.419,21.298-8.802,31.885-16.138l17.947,36.622H4442.488z M4393.539,876.534c0-16.221-4.134-29.202-12.422-38.933
			c-8.279-9.742-19.794-14.613-34.563-14.613c-14.794,0-26.702,5.347-35.754,16.03c-9.051,10.659-14.613,24.701-16.649,42.137
			l0.263,1.274h99.125V876.534z"/>
		<path fill="#3F4850" d="M4507.8,722.07h56.095v60.46h44.832v41.506h-44.832v137.809c0,19.126,8.112,28.69,24.345,28.69
			c6.48,0,12.281-1.024,17.402-3.073l5.903,41.231c-10.441,5.467-22.971,8.194-37.657,8.194c-44.076,0-66.088-25.01-66.088-75.043
			V824.036h-37.906V782.53h37.906V722.07z"/>
		<path fill="#3F4850" d="M4714.018,1031.517h-56.095V782.018h51.227l3.585,36.111c13.672-27.154,33.285-40.731,58.928-40.731
			c6.48,0,12.277,0.952,17.398,2.835l-6.918,52.236l-23.82-0.763c-21.329,0-36.123,8.813-44.305,26.392V1031.517z"/>
		<path fill="#3F4850" d="M4881.292,671.858v49.188h-55.847v-49.188H4881.292z M4881.292,782.018v249.499h-55.847V782.018H4881.292z
			"/>
		<path fill="#3F4850" d="M4989.386,911.382h-0.263c0,53.785,19.318,80.678,57.907,80.678c13.827,0,25.356-4.002,34.573-12.028
			c9.23-8.027,13.851-18.104,13.851-30.228h50.712l0.511,1.273c0.845,23.403-8.575,43.555-28.32,60.467
			c-19.71,16.899-43.496,25.344-71.326,25.344c-36.04,0-64.042-11.528-84.025-34.562c-19.973-23.07-29.976-53.381-29.976-90.944
			v-7.955c0-37.396,10.003-67.647,29.976-90.8c19.983-23.152,47.985-34.706,84.025-34.706c30.06,0,54.425,8.694,73.148,26.119
			c18.686,17.423,27.702,39.623,27.013,66.61l-0.515,1.286h-50.974c0-14.005-4.477-25.665-13.444-34.967
			c-8.982-9.313-20.628-13.981-34.97-13.981c-20.148,0-34.835,7.169-44.053,21.532c-9.24,14.34-13.851,33.991-13.851,58.906V911.382
			z"/>
		<path fill="#3F4850" d="M5320.752,987.2c7.764-5.454,11.646-12.814,11.646-22.033c0-9.218-3.8-16.65-11.422-22.283
			c-7.585-5.634-21.212-10.588-40.85-14.851c-30.74-6.671-53.535-15.841-68.387-27.536c-14.862-11.695-22.271-27.81-22.271-48.294
			c0-20.497,8.91-38.005,26.75-52.511c17.854-14.53,41.506-21.771,70.971-21.771c29.453,0,53.189,7.385,71.221,22.153
			c17.995,14.768,26.584,33.431,25.725,55.964l-0.511,1.536h-53.534c0-10.755-4.014-19.723-12.043-26.893
			c-8.027-7.17-18.662-10.766-31.893-10.766c-13.243,0-23.488,2.952-30.738,8.86c-7.254,5.883-10.9,13.386-10.9,22.533
			c0,9.135,3.467,16.173,10.387,21.128c6.932,4.954,20.355,9.385,40.349,13.315c31.943,6.669,55.321,15.936,70.185,27.797
			c14.865,11.886,22.295,27.798,22.295,47.771c0,22.545-9.228,40.778-27.678,54.701c-18.448,13.911-43.197,20.866-74.281,20.866
			c-31.073,0-56.191-8.003-75.305-24.07c-19.127-16.054-28.285-35.348-27.416-57.893l0.511-1.536h51.999
			c0.666,14.006,5.68,24.427,14.982,31.251c9.314,6.824,21.484,10.242,36.502,10.242l0.263,0.513
			C5301.838,995.395,5312.949,992.666,5320.752,987.2z"/>
	</g>
</g>
<polygon fill="#E91E25" points="298.322,435.477 574.312,435.477 574.312,705.135 808.521,705.135 808.521,435.477 1075.65,435.477 
	1075.65,1207.737 808.521,1207.737 808.521,935.545 569.248,935.545 569.248,1207.737 303.386,1207.737 "/>
<polygon fill="#363683" points="1073.577,435.477 1341.969,435.477 1472.548,693.333 1592.638,435.477 1864.829,435.477 
	1864.829,1212.804 1597.7,1212.804 1597.7,958.333 1469.202,1207.737 1331.84,952.006 1331.84,1207.737 1073.577,1207.737 "/>
<g>
	<path d="M9.564,1326.481v-73.404h9.714v73.404H9.564z"/>
	<path d="M42.942,1326.481v-53.176h8.111v7.561c3.906-5.841,9.546-8.763,16.924-8.763c3.205,0,6.15,0.576,8.837,1.728
		c2.687,1.152,4.698,2.663,6.034,4.531c1.335,1.87,2.27,4.09,2.804,6.66c0.333,1.669,0.5,4.59,0.5,8.763v32.696h-9.013v-32.346
		c0-3.672-0.351-6.417-1.052-8.237c-0.701-1.819-1.945-3.271-3.73-4.356c-1.786-1.084-3.881-1.627-6.284-1.627
		c-3.839,0-7.152,1.219-9.939,3.655c-2.788,2.437-4.181,7.06-4.181,13.87v29.041H42.942z"/>
	<path d="M127.239,1318.42l1.302,7.961c-2.538,0.534-4.807,0.802-6.81,0.802c-3.271,0-5.808-0.519-7.611-1.553
		c-1.802-1.034-3.071-2.395-3.805-4.08c-0.735-1.686-1.102-5.232-1.102-10.641v-30.594h-6.609v-7.01h6.609v-13.169l8.963-5.407
		v18.576h9.063v7.01h-9.063v31.095c0,2.57,0.158,4.223,0.476,4.957c0.317,0.734,0.834,1.319,1.552,1.752
		c0.717,0.435,1.744,0.651,3.079,0.651C124.285,1318.771,125.604,1318.654,127.239,1318.42z"/>
	<path d="M180.145,1309.357l9.313,1.151c-1.47,5.441-4.19,9.664-8.162,12.668c-3.973,3.004-9.046,4.507-15.222,4.507
		c-7.778,0-13.945-2.396-18.501-7.186c-4.557-4.79-6.835-11.508-6.835-20.154c0-8.945,2.303-15.889,6.91-20.829
		c4.607-4.94,10.582-7.411,17.926-7.411c7.11,0,12.918,2.421,17.425,7.261c4.506,4.841,6.76,11.65,6.76,20.429
		c0,0.535-0.017,1.336-0.05,2.404h-39.656c0.333,5.842,1.985,10.314,4.957,13.419c2.971,3.104,6.676,4.656,11.116,4.656
		c3.305,0,6.125-0.867,8.462-2.604C176.923,1315.934,178.776,1313.162,180.145,1309.357z M150.553,1294.786h29.692
		c-0.4-4.473-1.536-7.827-3.405-10.064c-2.872-3.471-6.593-5.207-11.166-5.207c-4.14,0-7.62,1.386-10.44,4.155
		C152.413,1286.441,150.853,1290.146,150.553,1294.786z"/>
	<path d="M206.711,1330.888l8.762,1.302c0.367,2.704,1.385,4.673,3.055,5.908c2.236,1.669,5.29,2.504,9.163,2.504
		c4.172,0,7.393-0.835,9.664-2.504c2.27-1.669,3.806-4.005,4.606-7.01c0.467-1.836,0.684-5.69,0.651-11.566
		c-3.939,4.641-8.846,6.96-14.721,6.96c-7.311,0-12.969-2.637-16.974-7.911c-4.006-5.274-6.009-11.6-6.009-18.978
		c0-5.073,0.918-9.755,2.754-14.045c1.835-4.289,4.498-7.603,7.986-9.939c3.488-2.336,7.586-3.505,12.292-3.505
		c6.275,0,11.449,2.537,15.522,7.611v-6.409h8.312v45.966c0,8.278-0.843,14.145-2.528,17.6c-1.686,3.455-4.356,6.184-8.012,8.187
		c-3.655,2.003-8.154,3.005-13.494,3.005c-6.343,0-11.466-1.428-15.372-4.281C208.463,1340.927,206.577,1336.629,206.711,1330.888z
		 M214.171,1298.942c0,6.977,1.385,12.067,4.156,15.271c2.771,3.205,6.242,4.807,10.415,4.807c4.139,0,7.611-1.594,10.415-4.781
		c2.804-3.188,4.206-8.187,4.206-14.997c0-6.509-1.444-11.416-4.332-14.721c-2.888-3.305-6.368-4.957-10.44-4.957
		c-4.005,0-7.41,1.627-10.214,4.882S214.171,1292.533,214.171,1298.942z"/>
	<path d="M272.883,1326.481v-53.176h8.111v8.062c2.069-3.771,3.981-6.259,5.733-7.461c1.752-1.201,3.68-1.803,5.783-1.803
		c3.037,0,6.125,0.969,9.263,2.904l-3.104,8.362c-2.203-1.302-4.406-1.953-6.609-1.953c-1.97,0-3.739,0.593-5.308,1.777
		c-1.569,1.186-2.688,2.829-3.355,4.933c-1.001,3.204-1.502,6.709-1.502,10.515v27.84H272.883z"/>
	<path d="M349.419,1319.922c-3.338,2.838-6.551,4.841-9.639,6.009c-3.088,1.168-6.401,1.753-9.939,1.753
		c-5.842,0-10.332-1.428-13.469-4.281c-3.138-2.854-4.707-6.501-4.707-10.94c0-2.604,0.592-4.982,1.778-7.136
		c1.185-2.153,2.737-3.881,4.657-5.183c1.919-1.302,4.081-2.286,6.484-2.954c1.769-0.467,4.439-0.918,8.012-1.352
		c7.277-0.868,12.634-1.903,16.073-3.104c0.033-1.234,0.05-2.02,0.05-2.354c0-3.672-0.852-6.259-2.554-7.761
		c-2.303-2.036-5.726-3.055-10.265-3.055c-4.24,0-7.369,0.743-9.389,2.229c-2.02,1.485-3.513,4.114-4.481,7.886l-8.813-1.201
		c0.801-3.772,2.12-6.817,3.956-9.139c1.835-2.319,4.489-4.105,7.961-5.357c3.472-1.252,7.494-1.878,12.067-1.878
		c4.54,0,8.228,0.535,11.066,1.603c2.837,1.068,4.923,2.412,6.259,4.031c1.335,1.619,2.27,3.663,2.804,6.134
		c0.3,1.535,0.451,4.306,0.451,8.312v12.017c0,8.38,0.191,13.679,0.576,15.898c0.383,2.22,1.143,4.348,2.278,6.384h-9.414
		C350.287,1324.612,349.687,1322.426,349.419,1319.922z M348.668,1299.793c-3.272,1.336-8.179,2.471-14.721,3.405
		c-3.706,0.534-6.327,1.135-7.861,1.803c-1.536,0.668-2.721,1.645-3.555,2.929c-0.835,1.286-1.252,2.713-1.252,4.281
		c0,2.403,0.909,4.406,2.729,6.009c1.819,1.603,4.481,2.403,7.986,2.403c3.472,0,6.56-0.759,9.263-2.278
		c2.704-1.519,4.689-3.597,5.958-6.233c0.968-2.036,1.452-5.04,1.452-9.014V1299.793z"/>
	<path d="M399.018,1318.42l1.302,7.961c-2.538,0.534-4.807,0.802-6.81,0.802c-3.271,0-5.808-0.519-7.611-1.553
		c-1.802-1.034-3.071-2.395-3.805-4.08c-0.735-1.686-1.102-5.232-1.102-10.641v-30.594h-6.609v-7.01h6.609v-13.169l8.963-5.407
		v18.576h9.063v7.01h-9.063v31.095c0,2.57,0.158,4.223,0.476,4.957c0.317,0.734,0.834,1.319,1.552,1.752
		c0.717,0.435,1.744,0.651,3.079,0.651C396.063,1318.771,397.382,1318.654,399.018,1318.42z"/>
	<path d="M451.923,1309.357l9.313,1.151c-1.47,5.441-4.19,9.664-8.162,12.668c-3.973,3.004-9.046,4.507-15.222,4.507
		c-7.778,0-13.945-2.396-18.501-7.186c-4.557-4.79-6.835-11.508-6.835-20.154c0-8.945,2.303-15.889,6.91-20.829
		c4.607-4.94,10.582-7.411,17.926-7.411c7.11,0,12.918,2.421,17.425,7.261c4.506,4.841,6.76,11.65,6.76,20.429
		c0,0.535-0.017,1.336-0.05,2.404h-39.656c0.333,5.842,1.985,10.314,4.957,13.419c2.971,3.104,6.676,4.656,11.116,4.656
		c3.305,0,6.125-0.867,8.462-2.604C448.702,1315.934,450.554,1313.162,451.923,1309.357z M422.331,1294.786h29.692
		c-0.4-4.473-1.536-7.827-3.405-10.064c-2.872-3.471-6.593-5.207-11.166-5.207c-4.14,0-7.62,1.386-10.44,4.155
		C424.191,1286.441,422.631,1290.146,422.331,1294.786z"/>
	<path d="M514.64,1326.481v-6.71c-3.372,5.275-8.329,7.912-14.871,7.912c-4.24,0-8.137-1.169-11.692-3.506
		c-3.555-2.336-6.309-5.599-8.262-9.788c-1.953-4.189-2.929-9.005-2.929-14.446c0-5.308,0.884-10.122,2.654-14.445
		c1.769-4.322,4.423-7.636,7.961-9.939c3.538-2.303,7.494-3.455,11.867-3.455c3.204,0,6.059,0.677,8.562,2.028
		s4.539,3.113,6.109,5.282v-26.337h8.962v73.404H514.64z M486.149,1299.943c0,6.81,1.435,11.9,4.306,15.272
		c2.871,3.371,6.259,5.057,10.165,5.057c3.938,0,7.286-1.61,10.04-4.832c2.754-3.221,4.131-8.137,4.131-14.746
		c0-7.276-1.402-12.618-4.206-16.022c-2.804-3.405-6.259-5.107-10.365-5.107c-4.006,0-7.353,1.636-10.04,4.907
		C487.493,1287.743,486.149,1292.9,486.149,1299.943z"/>
	<path d="M582.395,1326.481v-73.404h9.714v30.143h38.154v-30.143h9.714v73.404h-9.714v-34.6h-38.154v34.6H582.395z"/>
	<path d="M698.989,1309.357l9.313,1.151c-1.47,5.441-4.19,9.664-8.162,12.668c-3.973,3.004-9.046,4.507-15.222,4.507
		c-7.778,0-13.945-2.396-18.501-7.186c-4.557-4.79-6.835-11.508-6.835-20.154c0-8.945,2.303-15.889,6.91-20.829
		c4.607-4.94,10.582-7.411,17.926-7.411c7.11,0,12.918,2.421,17.425,7.261c4.506,4.841,6.76,11.65,6.76,20.429
		c0,0.535-0.017,1.336-0.05,2.404h-39.656c0.333,5.842,1.985,10.314,4.957,13.419c2.971,3.104,6.676,4.656,11.116,4.656
		c3.305,0,6.125-0.867,8.462-2.604C695.767,1315.934,697.62,1313.162,698.989,1309.357z M669.396,1294.786h29.692
		c-0.4-4.473-1.536-7.827-3.405-10.064c-2.872-3.471-6.593-5.207-11.166-5.207c-4.14,0-7.62,1.386-10.44,4.155
		C671.257,1286.441,669.697,1290.146,669.396,1294.786z"/>
	<path d="M761.906,1319.922c-3.338,2.838-6.551,4.841-9.639,6.009c-3.088,1.168-6.401,1.753-9.939,1.753
		c-5.842,0-10.332-1.428-13.469-4.281c-3.138-2.854-4.707-6.501-4.707-10.94c0-2.604,0.592-4.982,1.778-7.136
		c1.185-2.153,2.737-3.881,4.657-5.183c1.919-1.302,4.081-2.286,6.484-2.954c1.769-0.467,4.439-0.918,8.012-1.352
		c7.277-0.868,12.634-1.903,16.073-3.104c0.033-1.234,0.05-2.02,0.05-2.354c0-3.672-0.852-6.259-2.554-7.761
		c-2.303-2.036-5.726-3.055-10.265-3.055c-4.24,0-7.369,0.743-9.389,2.229c-2.02,1.485-3.513,4.114-4.481,7.886l-8.813-1.201
		c0.801-3.772,2.12-6.817,3.956-9.139c1.835-2.319,4.489-4.105,7.961-5.357c3.472-1.252,7.494-1.878,12.067-1.878
		c4.54,0,8.228,0.535,11.066,1.603c2.837,1.068,4.923,2.412,6.259,4.031c1.335,1.619,2.27,3.663,2.804,6.134
		c0.3,1.535,0.451,4.306,0.451,8.312v12.017c0,8.38,0.191,13.679,0.576,15.898c0.383,2.22,1.143,4.348,2.278,6.384h-9.414
		C762.773,1324.612,762.173,1322.426,761.906,1319.922z M761.155,1299.793c-3.272,1.336-8.179,2.471-14.721,3.405
		c-3.706,0.534-6.327,1.135-7.861,1.803c-1.536,0.668-2.721,1.645-3.555,2.929c-0.835,1.286-1.252,2.713-1.252,4.281
		c0,2.403,0.909,4.406,2.729,6.009c1.819,1.603,4.481,2.403,7.986,2.403c3.472,0,6.56-0.759,9.263-2.278
		c2.704-1.519,4.689-3.597,5.958-6.233c0.968-2.036,1.452-5.04,1.452-9.014V1299.793z"/>
	<path d="M791.626,1326.481v-73.404h9.013v73.404H791.626z"/>
	<path d="M841.875,1318.42l1.302,7.961c-2.538,0.534-4.807,0.802-6.81,0.802c-3.271,0-5.808-0.519-7.611-1.553
		c-1.802-1.034-3.071-2.395-3.805-4.08c-0.735-1.686-1.102-5.232-1.102-10.641v-30.594h-6.609v-7.01h6.609v-13.169l8.963-5.407
		v18.576h9.063v7.01h-9.063v31.095c0,2.57,0.158,4.223,0.476,4.957c0.317,0.734,0.834,1.319,1.552,1.752
		c0.717,0.435,1.744,0.651,3.079,0.651C838.921,1318.771,840.239,1318.654,841.875,1318.42z"/>
	<path d="M858.379,1326.481v-73.404h9.013v26.337c4.206-4.873,9.514-7.311,15.923-7.311c3.938,0,7.36,0.776,10.265,2.329
		c2.904,1.552,4.982,3.697,6.234,6.434c1.251,2.737,1.877,6.71,1.877,11.917v33.698h-9.013v-33.698c0-4.506-0.977-7.786-2.929-9.839
		s-4.715-3.079-8.287-3.079c-2.671,0-5.183,0.693-7.536,2.078c-2.353,1.385-4.031,3.263-5.032,5.633
		c-1.001,2.37-1.502,5.642-1.502,9.813v29.092H858.379z"/>
	<path d="M957.698,1307.004l8.863,1.151c-0.969,6.108-3.447,10.891-7.436,14.346c-3.989,3.455-8.888,5.183-14.696,5.183
		c-7.278,0-13.127-2.379-17.55-7.136c-4.423-4.757-6.634-11.574-6.634-20.454c0-5.741,0.951-10.766,2.854-15.071
		c1.903-4.307,4.798-7.536,8.688-9.689c3.888-2.152,8.119-3.229,12.693-3.229c5.775,0,10.498,1.461,14.17,4.382
		c3.671,2.921,6.025,7.068,7.06,12.442l-8.763,1.353c-0.834-3.572-2.312-6.26-4.431-8.062c-2.12-1.803-4.682-2.704-7.686-2.704
		c-4.54,0-8.229,1.627-11.066,4.882c-2.837,3.255-4.256,8.404-4.256,15.447c0,7.144,1.368,12.335,4.106,15.572
		c2.736,3.238,6.309,4.856,10.715,4.856c3.538,0,6.492-1.084,8.863-3.255C955.561,1314.849,957.063,1311.51,957.698,1307.004z"/>
	<path d="M1016.662,1319.922c-3.338,2.838-6.551,4.841-9.639,6.009c-3.088,1.168-6.401,1.753-9.939,1.753
		c-5.842,0-10.332-1.428-13.469-4.281c-3.138-2.854-4.707-6.501-4.707-10.94c0-2.604,0.592-4.982,1.778-7.136
		c1.185-2.153,2.737-3.881,4.657-5.183c1.919-1.302,4.081-2.286,6.484-2.954c1.769-0.467,4.439-0.918,8.012-1.352
		c7.277-0.868,12.634-1.903,16.073-3.104c0.033-1.234,0.05-2.02,0.05-2.354c0-3.672-0.852-6.259-2.554-7.761
		c-2.303-2.036-5.726-3.055-10.265-3.055c-4.24,0-7.369,0.743-9.389,2.229c-2.02,1.485-3.513,4.114-4.481,7.886l-8.813-1.201
		c0.801-3.772,2.12-6.817,3.956-9.139c1.835-2.319,4.489-4.105,7.961-5.357c3.472-1.252,7.494-1.878,12.067-1.878
		c4.54,0,8.228,0.535,11.066,1.603c2.837,1.068,4.923,2.412,6.259,4.031c1.335,1.619,2.27,3.663,2.804,6.134
		c0.3,1.535,0.451,4.306,0.451,8.312v12.017c0,8.38,0.191,13.679,0.576,15.898c0.383,2.22,1.143,4.348,2.278,6.384h-9.414
		C1017.53,1324.612,1016.929,1322.426,1016.662,1319.922z M1015.911,1299.793c-3.272,1.336-8.179,2.471-14.721,3.405
		c-3.706,0.534-6.327,1.135-7.861,1.803c-1.536,0.668-2.721,1.645-3.555,2.929c-0.835,1.286-1.252,2.713-1.252,4.281
		c0,2.403,0.909,4.406,2.729,6.009c1.819,1.603,4.481,2.403,7.986,2.403c3.472,0,6.56-0.759,9.263-2.278
		c2.704-1.519,4.689-3.597,5.958-6.233c0.968-2.036,1.452-5.04,1.452-9.014V1299.793z"/>
	<path d="M1046.482,1326.481v-53.176h8.111v8.062c2.069-3.771,3.981-6.259,5.733-7.461c1.752-1.201,3.68-1.803,5.783-1.803
		c3.037,0,6.125,0.969,9.263,2.904l-3.104,8.362c-2.203-1.302-4.406-1.953-6.609-1.953c-1.97,0-3.739,0.593-5.308,1.777
		c-1.569,1.186-2.688,2.829-3.355,4.933c-1.001,3.204-1.502,6.709-1.502,10.515v27.84H1046.482z"/>
	<path d="M1124.722,1309.357l9.313,1.151c-1.47,5.441-4.19,9.664-8.162,12.668c-3.973,3.004-9.046,4.507-15.222,4.507
		c-7.778,0-13.945-2.396-18.501-7.186c-4.557-4.79-6.835-11.508-6.835-20.154c0-8.945,2.303-15.889,6.91-20.829
		c4.607-4.94,10.582-7.411,17.926-7.411c7.11,0,12.918,2.421,17.425,7.261c4.506,4.841,6.76,11.65,6.76,20.429
		c0,0.535-0.017,1.336-0.05,2.404h-39.656c0.333,5.842,1.985,10.314,4.957,13.419c2.971,3.104,6.676,4.656,11.116,4.656
		c3.305,0,6.125-0.867,8.462-2.604C1121.5,1315.934,1123.353,1313.162,1124.722,1309.357z M1095.129,1294.786h29.692
		c-0.4-4.473-1.536-7.827-3.405-10.064c-2.872-3.471-6.593-5.207-11.166-5.207c-4.14,0-7.62,1.386-10.44,4.155
		C1096.99,1286.441,1095.43,1290.146,1095.129,1294.786z"/>
	<path d="M1189.972,1326.481v-73.404h14.621l17.375,51.974c1.603,4.841,2.771,8.462,3.505,10.865
		c0.834-2.67,2.136-6.592,3.906-11.767l17.575-51.072h13.068v73.404h-9.363v-61.438l-21.331,61.438h-8.762l-21.23-62.489v62.489
		H1189.972z"/>
	<path d="M1316.831,1319.922c-3.338,2.838-6.551,4.841-9.639,6.009c-3.088,1.168-6.401,1.753-9.939,1.753
		c-5.842,0-10.332-1.428-13.469-4.281c-3.138-2.854-4.707-6.501-4.707-10.94c0-2.604,0.592-4.982,1.778-7.136
		c1.185-2.153,2.737-3.881,4.657-5.183c1.919-1.302,4.081-2.286,6.484-2.954c1.769-0.467,4.439-0.918,8.012-1.352
		c7.277-0.868,12.634-1.903,16.073-3.104c0.033-1.234,0.05-2.02,0.05-2.354c0-3.672-0.852-6.259-2.554-7.761
		c-2.303-2.036-5.726-3.055-10.265-3.055c-4.24,0-7.369,0.743-9.389,2.229c-2.02,1.485-3.513,4.114-4.481,7.886l-8.813-1.201
		c0.801-3.772,2.12-6.817,3.956-9.139c1.835-2.319,4.489-4.105,7.961-5.357c3.472-1.252,7.494-1.878,12.067-1.878
		c4.54,0,8.228,0.535,11.066,1.603c2.837,1.068,4.923,2.412,6.259,4.031c1.335,1.619,2.27,3.663,2.804,6.134
		c0.3,1.535,0.451,4.306,0.451,8.312v12.017c0,8.38,0.191,13.679,0.576,15.898c0.383,2.22,1.143,4.348,2.278,6.384h-9.414
		C1317.698,1324.612,1317.098,1322.426,1316.831,1319.922z M1316.08,1299.793c-3.272,1.336-8.179,2.471-14.721,3.405
		c-3.706,0.534-6.327,1.135-7.861,1.803c-1.536,0.668-2.721,1.645-3.555,2.929c-0.835,1.286-1.252,2.713-1.252,4.281
		c0,2.403,0.909,4.406,2.729,6.009c1.819,1.603,4.481,2.403,7.986,2.403c3.472,0,6.56-0.759,9.263-2.278
		c2.704-1.519,4.689-3.597,5.958-6.233c0.968-2.036,1.452-5.04,1.452-9.014V1299.793z"/>
	<path d="M1346.751,1326.481v-53.176h8.111v7.561c3.906-5.841,9.546-8.763,16.924-8.763c3.205,0,6.15,0.576,8.837,1.728
		c2.687,1.152,4.698,2.663,6.034,4.531c1.335,1.87,2.27,4.09,2.804,6.66c0.333,1.669,0.5,4.59,0.5,8.763v32.696h-9.013v-32.346
		c0-3.672-0.351-6.417-1.052-8.237c-0.701-1.819-1.945-3.271-3.73-4.356c-1.786-1.084-3.881-1.627-6.284-1.627
		c-3.839,0-7.152,1.219-9.939,3.655c-2.788,2.437-4.181,7.06-4.181,13.87v29.041H1346.751z"/>
	<path d="M1446.07,1319.922c-3.338,2.838-6.551,4.841-9.639,6.009c-3.088,1.168-6.401,1.753-9.939,1.753
		c-5.842,0-10.332-1.428-13.469-4.281c-3.138-2.854-4.707-6.501-4.707-10.94c0-2.604,0.592-4.982,1.778-7.136
		c1.185-2.153,2.737-3.881,4.657-5.183c1.919-1.302,4.081-2.286,6.484-2.954c1.769-0.467,4.439-0.918,8.012-1.352
		c7.277-0.868,12.634-1.903,16.073-3.104c0.033-1.234,0.05-2.02,0.05-2.354c0-3.672-0.852-6.259-2.554-7.761
		c-2.303-2.036-5.726-3.055-10.265-3.055c-4.24,0-7.369,0.743-9.389,2.229c-2.02,1.485-3.513,4.114-4.481,7.886l-8.813-1.201
		c0.801-3.772,2.12-6.817,3.956-9.139c1.835-2.319,4.489-4.105,7.961-5.357c3.472-1.252,7.494-1.878,12.067-1.878
		c4.54,0,8.228,0.535,11.066,1.603c2.837,1.068,4.923,2.412,6.259,4.031c1.335,1.619,2.27,3.663,2.804,6.134
		c0.3,1.535,0.451,4.306,0.451,8.312v12.017c0,8.38,0.191,13.679,0.576,15.898c0.383,2.22,1.143,4.348,2.278,6.384h-9.414
		C1446.938,1324.612,1446.337,1322.426,1446.07,1319.922z M1445.319,1299.793c-3.272,1.336-8.179,2.471-14.721,3.405
		c-3.706,0.534-6.327,1.135-7.861,1.803c-1.536,0.668-2.721,1.645-3.555,2.929c-0.835,1.286-1.252,2.713-1.252,4.281
		c0,2.403,0.909,4.406,2.729,6.009c1.819,1.603,4.481,2.403,7.986,2.403c3.472,0,6.56-0.759,9.263-2.278
		c2.704-1.519,4.689-3.597,5.958-6.233c0.968-2.036,1.452-5.04,1.452-9.014V1299.793z"/>
	<path d="M1474.338,1330.888l8.762,1.302c0.367,2.704,1.385,4.673,3.055,5.908c2.236,1.669,5.29,2.504,9.163,2.504
		c4.172,0,7.393-0.835,9.664-2.504c2.27-1.669,3.806-4.005,4.606-7.01c0.467-1.836,0.684-5.69,0.651-11.566
		c-3.939,4.641-8.846,6.96-14.721,6.96c-7.311,0-12.969-2.637-16.974-7.911c-4.006-5.274-6.009-11.6-6.009-18.978
		c0-5.073,0.918-9.755,2.754-14.045c1.835-4.289,4.498-7.603,7.986-9.939c3.488-2.336,7.586-3.505,12.292-3.505
		c6.275,0,11.449,2.537,15.522,7.611v-6.409h8.312v45.966c0,8.278-0.843,14.145-2.528,17.6c-1.686,3.455-4.356,6.184-8.012,8.187
		c-3.655,2.003-8.154,3.005-13.494,3.005c-6.343,0-11.466-1.428-15.372-4.281
		C1476.091,1340.927,1474.205,1336.629,1474.338,1330.888z M1481.799,1298.942c0,6.977,1.385,12.067,4.156,15.271
		c2.771,3.205,6.242,4.807,10.415,4.807c4.139,0,7.611-1.594,10.415-4.781c2.804-3.188,4.206-8.187,4.206-14.997
		c0-6.509-1.444-11.416-4.332-14.721c-2.888-3.305-6.368-4.957-10.44-4.957c-4.005,0-7.41,1.627-10.214,4.882
		S1481.799,1292.533,1481.799,1298.942z"/>
	<path d="M1577.013,1309.357l9.313,1.151c-1.47,5.441-4.19,9.664-8.162,12.668c-3.973,3.004-9.046,4.507-15.222,4.507
		c-7.778,0-13.945-2.396-18.501-7.186c-4.557-4.79-6.835-11.508-6.835-20.154c0-8.945,2.303-15.889,6.91-20.829
		c4.607-4.94,10.582-7.411,17.926-7.411c7.11,0,12.918,2.421,17.425,7.261c4.506,4.841,6.76,11.65,6.76,20.429
		c0,0.535-0.017,1.336-0.05,2.404h-39.656c0.333,5.842,1.985,10.314,4.957,13.419c2.971,3.104,6.676,4.656,11.116,4.656
		c3.305,0,6.125-0.867,8.462-2.604C1573.791,1315.934,1575.644,1313.162,1577.013,1309.357z M1547.42,1294.786h29.692
		c-0.4-4.473-1.536-7.827-3.405-10.064c-2.872-3.471-6.593-5.207-11.166-5.207c-4.14,0-7.62,1.386-10.44,4.155
		C1549.281,1286.441,1547.721,1290.146,1547.42,1294.786z"/>
	<path d="M1605.23,1326.481v-53.176h8.062v7.461c1.668-2.604,3.888-4.698,6.659-6.284c2.771-1.585,5.925-2.379,9.464-2.379
		c3.938,0,7.168,0.818,9.688,2.454c2.52,1.636,4.298,3.923,5.333,6.859c4.206-6.209,9.68-9.313,16.423-9.313
		c5.274,0,9.33,1.461,12.167,4.382c2.837,2.921,4.256,7.419,4.256,13.494v36.502h-8.963v-33.498c0-3.604-0.292-6.2-0.876-7.786
		c-0.584-1.585-1.645-2.861-3.18-3.83c-1.536-0.968-3.338-1.452-5.408-1.452c-3.739,0-6.843,1.244-9.313,3.73
		c-2.471,2.487-3.705,6.468-3.705,11.941v30.895h-9.013v-34.549c0-4.006-0.734-7.011-2.203-9.014
		c-1.469-2.003-3.873-3.004-7.21-3.004c-2.537,0-4.882,0.668-7.035,2.003c-2.153,1.335-3.714,3.288-4.682,5.858
		c-0.969,2.57-1.452,6.276-1.452,11.115v27.59H1605.23z"/>
	<path d="M1734.643,1309.357l9.313,1.151c-1.47,5.441-4.19,9.664-8.162,12.668c-3.973,3.004-9.046,4.507-15.222,4.507
		c-7.778,0-13.945-2.396-18.501-7.186c-4.557-4.79-6.835-11.508-6.835-20.154c0-8.945,2.303-15.889,6.91-20.829
		c4.607-4.94,10.582-7.411,17.926-7.411c7.11,0,12.918,2.421,17.425,7.261c4.506,4.841,6.76,11.65,6.76,20.429
		c0,0.535-0.017,1.336-0.05,2.404h-39.656c0.333,5.842,1.985,10.314,4.957,13.419c2.971,3.104,6.676,4.656,11.116,4.656
		c3.305,0,6.125-0.867,8.462-2.604C1731.421,1315.934,1733.273,1313.162,1734.643,1309.357z M1705.05,1294.786h29.692
		c-0.4-4.473-1.536-7.827-3.405-10.064c-2.872-3.471-6.593-5.207-11.166-5.207c-4.14,0-7.62,1.386-10.44,4.155
		C1706.911,1286.441,1705.351,1290.146,1705.05,1294.786z"/>
	<path d="M1762.86,1326.481v-53.176h8.111v7.561c3.906-5.841,9.546-8.763,16.924-8.763c3.205,0,6.15,0.576,8.837,1.728
		c2.687,1.152,4.698,2.663,6.034,4.531c1.335,1.87,2.27,4.09,2.804,6.66c0.333,1.669,0.5,4.59,0.5,8.763v32.696h-9.013v-32.346
		c0-3.672-0.351-6.417-1.052-8.237c-0.701-1.819-1.945-3.271-3.73-4.356c-1.786-1.084-3.881-1.627-6.284-1.627
		c-3.839,0-7.152,1.219-9.939,3.655c-2.788,2.437-4.181,7.06-4.181,13.87v29.041H1762.86z"/>
	<path d="M1847.158,1318.42l1.302,7.961c-2.538,0.534-4.807,0.802-6.81,0.802c-3.271,0-5.808-0.519-7.611-1.553
		c-1.802-1.034-3.071-2.395-3.805-4.08c-0.735-1.686-1.102-5.232-1.102-10.641v-30.594h-6.609v-7.01h6.609v-13.169l8.963-5.407
		v18.576h9.063v7.01h-9.063v31.095c0,2.57,0.158,4.223,0.476,4.957c0.317,0.734,0.834,1.319,1.552,1.752
		c0.717,0.435,1.744,0.651,3.079,0.651C1844.204,1318.771,1845.522,1318.654,1847.158,1318.42z"/>
</g>
<rect x="3.801" y="435.476" fill="#363683" width="303.841" height="772.261"/>
</svg>
